<svg width="318" height="83" viewBox="0 0 318 83" fill="none" xmlns="http://www.w3.org/2000/svg">
<mask id="mask0" mask-type="alpha" maskUnits="userSpaceOnUse" x="2" y="16" width="316" height="49">
<path d="M13.888 54.216C13.76 53.832 13.888 53.448 14.016 53.064L15.104 49.736C15.872 47.048 17.6 43.464 16.384 41.544C15.744 40.584 14.912 40.2 14.336 40.136C11.712 40.008 9.28 43.72 7.232 45.896L6.528 46.664C4.608 48.968 3.584 50.056 3.072 51.272C2.88 51.592 2.88 53.192 2.944 53.512C2.944 53.96 2.944 54.408 2.816 55.752L4.16 54.6C4.416 54.152 4.928 53.512 5.376 53.064C5.824 52.616 6.336 52.104 6.656 51.784C7.104 51.272 7.36 50.76 7.808 50.376C8.32 49.864 8.896 49.736 9.152 49.736L9.536 50.12L9.216 50.76C9.216 51.336 9.472 51.208 9.216 51.784C9.024 52.104 9.024 52.488 9.024 52.68L8.64 54.152C7.616 57.544 6.912 59.784 7.104 63.048C7.552 63.368 8.128 63.432 8.512 63.432L9.728 63.304C11.2 62.792 11.008 62.28 12.032 61.256C12.16 61.128 13.44 60.04 13.44 60.04C14.208 59.208 13.824 59.528 14.4 58.696C15.04 58.184 15.232 58.056 15.552 57.544C15.808 57.16 16.192 56.584 16.32 56.2C16.896 55.496 20.544 52.296 21.44 52.104C22.336 51.72 22.912 52.744 23.104 53.192C23.68 53.64 23.424 53.64 24.384 54.6C24.64 55.496 24.768 55.496 25.216 56.136C26.176 57.608 26.88 58.312 27.84 58.504C29.376 58.952 30.72 58.056 32 56.84C34.624 54.6 33.856 54.536 33.728 51.528C32.96 51.272 32.576 51.72 32.064 52.36C31.488 53 30.912 52.936 30.464 52.936C29.12 52.488 28.416 49.288 27.904 48.328C26.88 46.344 26.304 45.576 24.704 45.512C22.464 45.384 21.056 46.728 18.88 48.968C18.496 49.48 18.56 49.352 18.112 49.608C17.856 49.864 17.728 50.056 17.472 50.312C16.64 51.144 16.64 51.528 16.384 51.784C15.36 52.424 15.68 52.104 14.976 53C14.464 53.576 14.656 53.96 13.888 54.216ZM55.5325 37.576C55.1485 36.552 54.6365 36.296 53.6765 36.296C52.9725 36.168 52.0765 36.424 51.6285 36.616C50.9885 36.936 48.4925 38.6 47.5325 39.432L45.1645 41.288C43.9485 42.504 43.9485 42.312 42.7325 43.208C41.9645 43.784 41.3885 44.616 40.6205 45.192C39.5325 46.024 39.4045 45.96 38.5725 47.24L37.4205 48.2C37.1005 48.584 36.7805 48.968 36.3965 49.352L35.1805 50.312C33.5805 51.848 34.0925 53.832 34.1565 55.176L34.7965 55.56C34.2845 56.968 34.0925 57.864 34.4125 59.016C34.6685 59.848 34.3485 59.784 35.1805 60.36L36.4605 61C38.8925 61.512 43.8845 56.84 46.3805 54.472L48.8765 52.168L49.3885 52.424C49.4525 53.32 49.4525 54.344 49.7085 55.24C50.2845 56.904 51.5645 57.992 52.7165 58.312C54.5725 58.824 56.2365 58.312 58.2845 56.712C58.5405 56.52 59.5645 55.752 59.6925 55.56C60.2685 54.984 59.9485 54.536 59.9485 54.152C60.0125 53.32 59.9485 51.976 59.9485 51.464C59.6925 51.144 58.9245 52.04 58.5405 52.36C57.6445 53 57.3245 53.128 57.1325 53.192C56.2365 53.384 55.4685 52.872 54.9565 52.232C54.0605 51.144 54.5725 49.736 54.5725 48.712C54.5725 47.752 54.3165 47.112 54.2525 46.984C54.2525 46.408 54.2525 45.768 53.6765 45.448C50.3485 45.64 50.1565 46.856 47.0845 49.352L43.0525 52.872C41.8365 53.64 42.1565 54.088 41.0045 54.088L40.8125 53.768L41.0045 53.448L41.5165 52.744C41.7085 52.168 41.8365 52.04 42.4765 51.528C42.7965 51.016 43.3725 50.376 43.6285 50.12C43.7565 50.056 44.4605 49.288 44.7165 48.968L54.2525 39.88C54.6365 39.304 54.7005 39.304 55.2765 38.728C55.4685 38.216 55.5325 38.152 55.5325 37.576ZM81.5575 16.008C72.2135 18.056 63.6375 39.624 62.3575 46.408L61.9095 48.392C61.8455 48.712 61.7175 49.096 61.5895 49.288C61.5895 49.672 61.4615 50.056 61.3975 50.184C60.3095 51.272 60.4375 50.952 60.1175 51.912C59.9895 52.68 60.1815 52.872 60.1175 53.576C60.1175 54.152 60.1175 54.664 60.0535 55.304L61.0135 54.664C60.8855 57.8 60.9495 60.744 61.7175 62.088C62.2295 63.048 63.0615 63.368 64.0855 63.304C65.8775 63.24 66.3895 62.472 67.7975 60.616L69.3975 58.44C70.1015 57.8 69.9095 57.032 70.4855 56.456L71.6375 55.176C72.0215 54.728 72.2775 54.216 72.5975 53.896H73.0455C74.3895 55.88 75.0935 57.032 76.5015 57.416C76.9495 57.608 79.3175 57.544 79.6375 57.416C80.5335 57.224 82.1335 56.136 82.8375 55.624C84.3735 54.6 83.9895 55.048 84.2455 53.448C84.2455 52.872 84.1815 52.616 84.4375 52.168C84.4375 51.4 84.6935 51.656 84.3735 50.888C83.7335 50.696 82.5175 51.784 81.9415 51.976C80.7255 52.488 80.0215 52.424 79.5735 52.232C77.3335 51.208 77.3975 47.496 76.7575 46.088L75.9895 45.064C71.5095 45.896 72.9175 46.472 70.5495 50.632L69.9735 51.528C68.3735 54.536 68.5655 54.536 66.2615 57.288C66.0055 56.968 65.9415 55.944 65.9415 55.624C65.9415 55.048 66.0055 54.536 66.1335 54.088L66.3255 52.424C66.3255 52.296 66.3895 51.848 66.5815 50.952C67.0935 47.688 67.8615 47.688 70.1655 44.872L71.3815 43.464C71.7655 42.568 72.2775 42.184 72.7255 41.416L75.0295 38.28C75.1575 37.96 75.6695 37.448 75.9895 37.128C76.1815 36.872 76.2455 36.68 76.4375 36.424C76.6295 36.168 76.8215 35.912 76.8215 35.848L77.6535 34.632C77.9095 34.312 80.2775 29.64 80.4055 29.448L80.9815 28.552C81.1735 28.04 81.3655 27.592 81.6855 26.696L82.3895 24.904L82.9655 24.008C83.4775 22.536 83.9255 20.616 84.1175 17.48L82.7735 16.584L82.0055 16.648L81.5575 16.008ZM78.9975 22.536C79.3175 22.152 79.4455 21.832 79.8935 22.28C79.8935 23.432 80.0855 23.432 79.3175 24.648L78.1015 27.208C75.9895 31.944 74.7095 34.632 68.6935 41.48C68.6935 41.416 68.8215 40.648 69.0775 40.072L69.5255 38.856L69.6535 38.344C69.8455 38.088 69.9095 37.896 69.9095 37.832L70.9975 35.08C71.1895 34.632 71.3815 34.056 71.3815 33.288L74.9655 28.232C75.0295 28.04 75.2215 27.592 75.3495 27.272L75.5415 27.08L75.7975 26.824L76.1175 26.312L77.0775 24.904C77.5895 24.2 77.6535 23.944 78.2295 23.24C78.5495 22.92 78.6135 22.92 78.9975 22.536ZM99.7555 39.88C98.0275 39.496 97.5155 38.856 95.8515 40.328C94.9555 41.032 95.2115 41.032 94.1235 42.056C92.9715 42.952 92.5235 43.528 92.2675 43.72L84.2675 51.784C84.2675 52.168 84.2675 52.424 84.2035 52.68C84.2035 52.936 84.2675 53.192 84.2675 53.192V53.448V53.64V53.896L84.2035 54.152V54.408L84.2675 54.664C84.3955 55.176 84.2675 55.112 84.2675 55.56L84.5235 55.496L84.7155 55.176C85.0355 54.856 84.9715 54.92 85.2915 54.728L88.1075 52.36C87.9795 53.256 87.7235 57.032 87.9795 57.928C88.4275 59.464 90.2195 60.872 91.4355 61.256C94.0595 62.088 96.8755 60.808 99.2435 58.952C102.699 56.264 107.243 49.736 107.179 46.088C107.115 44.104 106.667 42.568 104.875 41.416C103.083 40.264 101.611 40.776 99.1795 41.8C98.6675 41.032 99.7555 40.648 99.7555 39.88ZM108.843 51.08L103.083 57.352L102.251 58.44L102.571 59.272C103.211 59.272 103.467 59.144 103.915 58.888C104.043 58.696 104.747 58.184 105.195 57.928C105.579 57.8 106.347 57.224 106.539 57.096C106.923 56.84 107.499 56.392 107.691 56.2C110.507 54.216 110.059 54.088 109.547 51.656L109.291 51.208L108.843 51.08ZM100.331 46.408C100.971 46.408 101.483 46.472 101.803 46.984C102.379 48.584 102.507 49.224 102.251 50.12C101.739 51.016 101.675 51.272 101.547 51.656C101.419 52.168 101.611 52.424 100.715 53.256C99.4995 54.792 96.2355 57.224 94.8915 57.224C94.3155 57.16 93.6755 56.904 93.3555 56.328C92.8435 55.496 93.2275 53.576 93.8035 52.296C93.8675 52.232 94.5715 51.016 94.6995 50.76C95.0835 49.864 95.2115 50.056 95.9795 49.8C97.0035 49.032 96.6835 49.288 97.3875 48.328L97.8995 47.496L98.6675 46.856C99.0515 46.6 99.5635 46.408 100.331 46.408ZM124.134 18.376C123.558 18.632 123.302 19.272 123.046 19.784L122.598 20.616C122.406 21.064 122.598 21 122.342 21.384L117.67 35.272C117.606 35.464 117.286 36.36 117.158 36.936L116.646 38.6L115.814 40.2C115.686 40.584 115.366 41.416 115.174 41.8L114.086 44.168C113.702 44.744 113.702 44.744 113.382 45.448L112.486 47.56C112.23 48.072 111.334 49.288 111.014 49.608C110.694 49.928 110.63 50.312 110.31 50.632C109.926 51.144 109.67 51.208 109.542 51.528C109.414 51.72 109.542 53.192 109.542 53.448C109.542 53.96 109.542 54.536 109.478 55.368C109.798 55.368 109.99 55.048 110.054 54.984L110.438 54.728L110.822 54.472C111.334 54.024 111.59 53.64 111.91 53.256C112.742 52.68 112.422 52.296 112.998 51.976C113.638 51.336 113.51 51.08 114.15 50.76L113.574 55.176C113.382 57.16 112.422 60.68 113.638 62.536C113.958 63.56 114.726 63.624 115.43 63.624C117.094 63.56 121.318 57.48 122.406 56.136C122.983 55.368 122.854 54.856 123.878 55.048L124.198 55.368L124.518 55.624L125.222 55.944C125.927 56.456 125.862 56.456 126.438 56.968C127.719 58.056 128.23 58.312 128.806 58.44C130.15 58.76 131.878 57.864 132.966 56.776C135.271 54.536 135.079 53.192 134.694 51.016C134.182 50.888 133.351 51.848 132.966 52.296C132.198 52.936 131.687 53 131.302 53C130.087 53 128.102 50.632 127.654 49.864C126.95 49.096 127.142 48.84 127.526 48.2C127.654 47.88 128.038 46.92 128.167 46.664C128.806 45.192 129.191 44.808 129.958 43.528L130.535 42.568C131.238 41.224 132.135 39.624 132.262 38.6C132.326 38.28 132.262 36.68 132.198 36.552C131.814 35.4 131.494 35.4 130.663 35.4C129.958 35.656 129.254 37.192 128.998 37.576L127.91 39.816C127.526 40.392 127.142 41.544 127.014 41.992C126.823 42.312 125.862 43.976 125.799 44.168C125.158 45.256 125.158 45.512 124.134 46.152C123.366 46.408 122.534 46.472 122.022 47.432C121.446 48.2 121.062 51.72 120.742 52.424C120.166 53.704 119.974 53.768 119.398 54.984C119.206 55.432 119.142 55.88 118.822 56.328C118.63 56.52 118.118 57.096 117.798 57.224C117.542 56.904 117.798 55.048 117.798 54.728L118.502 51.784L118.822 50.44L120.422 44.36C121.51 39.624 121.062 41.224 122.662 37.192L125.03 31.176C125.606 29.512 126.694 25.8 126.95 24.264C127.142 22.472 127.142 21.768 126.823 20.872C126.502 20.04 126.118 19.464 125.799 19.144C125.158 18.184 124.39 18.376 124.134 18.376ZM150.181 39.88C148.453 39.496 147.941 38.856 146.277 40.328C145.381 41.032 145.637 41.032 144.549 42.056C143.397 42.952 142.949 43.528 142.693 43.72L134.693 51.784C134.693 52.168 134.693 52.424 134.629 52.68C134.629 52.936 134.693 53.192 134.693 53.192V53.448V53.64V53.896L134.629 54.152V54.408L134.693 54.664C134.821 55.176 134.693 55.112 134.693 55.56L134.949 55.496L135.141 55.176C135.461 54.856 135.397 54.92 135.717 54.728L138.533 52.36C138.405 53.256 138.149 57.032 138.405 57.928C138.853 59.464 140.645 60.872 141.861 61.256C144.485 62.088 147.301 60.808 149.669 58.952C153.125 56.264 157.669 49.736 157.605 46.088C157.541 44.104 157.093 42.568 155.301 41.416C153.509 40.264 152.037 40.776 149.605 41.8C149.093 41.032 150.181 40.648 150.181 39.88ZM159.269 51.08L153.509 57.352L152.677 58.44L152.997 59.272C153.637 59.272 153.893 59.144 154.341 58.888C154.469 58.696 155.173 58.184 155.621 57.928C156.005 57.8 156.773 57.224 156.965 57.096C157.349 56.84 157.925 56.392 158.117 56.2C160.933 54.216 160.485 54.088 159.973 51.656L159.717 51.208L159.269 51.08ZM150.757 46.408C151.397 46.408 151.909 46.472 152.229 46.984C152.805 48.584 152.933 49.224 152.677 50.12C152.165 51.016 152.101 51.272 151.973 51.656C151.845 52.168 152.037 52.424 151.141 53.256C149.925 54.792 146.661 57.224 145.317 57.224C144.741 57.16 144.101 56.904 143.781 56.328C143.269 55.496 143.653 53.576 144.229 52.296C144.293 52.232 144.997 51.016 145.125 50.76C145.509 49.864 145.637 50.056 146.405 49.8C147.429 49.032 147.109 49.288 147.812 48.328L148.325 47.496L149.093 46.856C149.477 46.6 149.989 46.408 150.757 46.408ZM184.607 39.88C181.791 40.2 180.063 42.248 177.439 44.872L173.663 48.456C173.215 49.096 172.959 49.288 172.447 49.48C171.935 49.096 172.383 47.944 172.511 47.624L172.831 45.896C173.151 44.552 173.279 42.696 173.151 42.312C173.151 41.416 172.703 41.096 171.871 41.096C169.375 40.584 165.791 45.128 164.319 46.664L161.247 49.864L159.967 51.528C159.967 52.104 159.903 53.704 159.903 55.176L161.631 53.64C161.695 53.576 162.271 53.192 163.487 51.976L164.255 51.016C164.575 50.248 165.471 50.12 165.855 50.12L166.239 50.504L165.791 52.744L165.343 54.472C165.151 55.112 163.551 59.72 163.935 60.36C164.127 60.68 164.639 60.936 165.343 60.936C166.879 60.936 170.399 56.456 171.231 55.56L174.815 51.592C176.031 50.312 176.479 50.568 176.927 49.8C177.439 48.904 178.655 48.584 179.039 48.584L179.487 48.968C179.167 51.08 179.231 51.336 178.783 53.256L178.207 55.56C178.079 55.88 177.887 56.264 177.887 56.456L176.863 60.936L177.759 62.088C179.999 61.512 180.255 61.128 181.471 59.784L183.263 57.8C186.079 54.728 187.167 52.168 189.535 52.36C191.199 52.552 192.607 55.752 195.423 57.416C197.343 58.504 198.559 58.312 200.159 57.352C203.231 55.432 202.079 54.792 202.335 50.696C201.759 50.696 201.183 51.784 200.863 52.104C200.031 52.808 199.583 53 199.263 53C198.495 53.128 197.855 52.552 197.279 51.784C196.255 50.248 195.231 46.344 192.863 45.896C190.623 45.512 185.375 50.696 184.607 51.528V50.056L185.247 47.432C185.247 46.984 185.375 46.536 185.375 46.152C185.503 45.704 185.439 45.256 185.567 44.872C185.695 43.912 185.823 42.952 185.759 42.184C185.695 41.416 185.567 40.968 185.503 40.904C185.247 40.2 185.183 40.328 184.607 39.88ZM223.87 37.576C223.486 36.552 222.974 36.296 222.014 36.296C221.31 36.168 220.414 36.424 219.966 36.616C219.326 36.936 216.83 38.6 215.87 39.432L213.502 41.288C212.286 42.504 212.286 42.312 211.07 43.208C210.302 43.784 209.726 44.616 208.958 45.192C207.87 46.024 207.742 45.96 206.91 47.24L205.758 48.2C205.438 48.584 205.118 48.968 204.734 49.352L203.518 50.312C201.918 51.848 202.43 53.832 202.494 55.176L203.134 55.56C202.622 56.968 202.43 57.864 202.75 59.016C203.006 59.848 202.686 59.784 203.518 60.36L204.798 61C207.23 61.512 212.222 56.84 214.718 54.472L217.214 52.168L217.726 52.424C217.79 53.32 217.79 54.344 218.046 55.24C218.622 56.904 219.902 57.992 221.054 58.312C222.91 58.824 224.574 58.312 226.622 56.712C226.878 56.52 227.902 55.752 228.03 55.56C228.606 54.984 228.286 54.536 228.286 54.152C228.35 53.32 228.286 51.976 228.286 51.464C228.03 51.144 227.262 52.04 226.878 52.36C225.982 53 225.662 53.128 225.47 53.192C224.574 53.384 223.806 52.872 223.294 52.232C222.398 51.144 222.91 49.736 222.91 48.712C222.91 47.752 222.654 47.112 222.59 46.984C222.59 46.408 222.59 45.768 222.014 45.448C218.686 45.64 218.494 46.856 215.422 49.352L211.39 52.872C210.174 53.64 210.494 54.088 209.342 54.088L209.15 53.768L209.342 53.448L209.854 52.744C210.046 52.168 210.174 52.04 210.814 51.528C211.134 51.016 211.71 50.376 211.966 50.12C212.094 50.056 212.798 49.288 213.054 48.968L222.59 39.88C222.974 39.304 223.038 39.304 223.614 38.728C223.806 38.216 223.87 38.152 223.87 37.576ZM246.503 30.664C246.503 30.152 246.631 29.96 246.823 29.384C246.823 29.256 247.143 28.424 247.271 28.232C247.591 26.824 247.591 25.928 246.951 25.352C246.375 24.84 245.863 24.776 245.287 24.968C243.175 25.8 242.919 28.872 242.087 29.96C240.999 31.304 236.199 30.6 234.791 30.664H230.183C229.351 31.24 229.735 31.112 229.351 31.944L229.223 33.224C229.159 33.928 229.095 34.44 229.095 34.568C229.095 35.144 229.031 35.272 229.351 35.72C233.639 36.808 237.351 36.488 238.503 36.36L239.015 36.744L237.735 39.176C234.727 44.488 234.599 44.616 232.487 47.304L229.479 50.696C227.943 52.36 228.391 51.592 228.391 53.256V54.6C228.391 54.92 228.455 55.56 228.519 55.816L235.239 49.16C235.559 48.648 236.199 47.752 236.519 47.56C236.775 48.008 236.391 48.456 236.199 48.904C236.135 49.032 236.007 49.48 235.879 50.184L235.495 52.68C235.239 53.896 234.151 60.936 234.983 62.152C235.431 62.92 235.623 62.6 236.199 62.984L237.543 63.816C238.375 63.88 242.919 59.528 243.431 59.08L244.455 58.312C249.127 54.024 247.975 56.008 248.231 51.208L247.847 50.888L245.863 52.488C245.479 52.68 244.583 53.64 244.199 54.024L242.727 55.24C242.215 55.624 241.255 56.392 240.743 56.52L240.231 56.136C240.295 54.792 240.743 52.36 240.935 51.592V50.376L241.575 47.24L241.959 45.64C242.279 44.808 242.471 44.68 242.471 43.72L244.583 36.872C244.839 36.808 246.439 36.616 246.695 36.424C247.335 35.976 247.335 35.208 247.335 33.992C247.335 33.608 247.335 33.032 247.399 32.648V31.368L246.503 30.664ZM262.248 56.776C261.864 56.2 262.248 55.24 262.376 54.984L262.696 53.832C264.424 49.032 265.896 42.248 264.808 40.328C264.36 39.496 263.272 39.048 262.248 38.92C260.136 38.664 257.448 42.376 255.784 44.104L249.064 50.952C247.848 52.296 248.168 51.912 248.168 53.192C248.296 53.512 248.232 55.112 248.232 55.496C248.68 55.496 249.128 55.112 249.576 54.664L250.792 53.448C251.304 52.936 252.264 51.784 252.84 51.464L254.312 50.056C255.4 48.904 254.952 49.288 256.168 48.392C256.936 47.816 257.384 46.984 258.024 46.984L258.728 47.56C258.664 50.824 258.664 52.68 257.64 55.816L256.872 54.664C256.04 54.664 256.424 54.664 255.592 54.984C254.888 55.368 254.632 55.816 254.504 55.944C254.12 56.584 254.248 57.224 254.376 58.44C254.44 58.952 254.76 60.936 255.656 63.432V64.456C256.808 65.288 257.064 64.52 257.896 64.2C258.664 63.944 259.304 63.688 259.816 62.792L263.144 59.848C263.336 59.784 263.656 59.464 264.488 59.08C264.872 58.824 264.808 58.952 265.128 58.632L265.448 58.44L265.704 58.184C266.408 57.736 267.752 56.392 267.944 56.136C269.544 54.408 268.456 53.576 268.776 51.208C268.328 50.76 267.368 52.104 267.112 52.296C266.728 52.808 266.088 53.64 265.64 53.896C264.232 55.368 263.208 56.072 262.248 56.776ZM279.504 56.328C278.288 52.68 279.568 48.008 281.232 42.376C281.68 40.904 281.616 40.52 281.36 40.2C281.104 39.944 280.592 39.752 279.824 39.88C277.84 40.2 277.648 40.968 276.048 43.272C275.28 44.552 274.896 44.936 274.384 45.512C273.936 46.536 273.424 46.664 272.72 47.752L271.184 49.544C267.92 53 268.944 51.912 268.88 55.56C269.008 56.136 270.032 55.048 270.48 54.664C270.736 54.408 271.056 54.216 271.376 54.024L271.632 53.576L272.016 53.256L273.104 52.488C273.168 53.64 273.616 58.888 274.512 60.04C275.216 61.128 276.496 61.576 277.456 61.576C281.232 61.512 285.968 54.344 286.928 53C287.568 54.664 288.208 56.968 290.384 57.8C292.56 58.504 295.376 56.776 298.064 54.664C298.128 52.936 298.064 52.616 297.936 51.016L297.68 50.888L297.488 50.952L297.04 51.272C296.912 51.4 296.592 51.592 296.144 51.976C295.056 52.744 294.672 52.872 294.352 52.872C293.648 52.808 293.072 52.296 292.688 51.656C292.176 50.696 292.176 46.536 292.048 46.216C291.472 45.384 290.512 45.448 289.104 45.512L287.44 47.304C284.816 51.272 283.024 53.896 279.504 56.328ZM313.384 26.312C312.808 25.032 312.168 25.224 311.336 25.48C310.632 25.608 309.992 25.928 309.8 26.056C309.48 26.184 309.096 26.504 309.096 26.568C308.776 26.952 308.84 27.016 308.584 27.272C307.624 27.592 307.496 27.848 307.112 28.296C306.6 28.808 306.216 29.256 305.96 29.704C305 31.304 305.384 32.392 306.088 34.12C306.6 34.312 306.408 34.376 306.92 34.248C307.496 34.44 307.24 34.248 307.752 34.248C308.776 34.248 308.456 34.504 309.288 33.992C312.424 32.584 313 28.552 313.384 26.312ZM317.224 50.952C316.328 51.336 315.56 52.04 315.24 52.488C314.6 53.064 313.896 53.448 313.192 53.576C312.232 53.768 312.104 54.024 311.336 53.064C310.248 51.976 309.608 45.512 309.48 45.256C308.968 44.36 307.816 43.656 306.792 43.528C305.768 43.4 305.96 43.272 305.064 44.04C304.424 45.064 304.808 44.744 303.912 45.448C302.568 46.728 302.376 47.24 301.16 48.648L300.2 49.736C299.816 50.12 299.432 50.44 298.472 51.08C298.344 51.464 298.28 52.808 298.28 53.192C298.28 53.896 298.216 54.6 298.216 55.304C298.792 55.496 299.304 54.6 299.432 54.408C299.624 54.28 300.072 54.024 300.2 54.024C300.456 53.576 300.456 53.512 300.776 53.32C301.608 52.552 302.888 51.336 303.464 51.464C304.36 51.592 304.296 52.424 304.552 52.936C304.872 53.512 305.384 54.216 305.64 54.664C305.64 55.048 305.768 55.624 306.088 55.944C306.344 56.456 306.728 56.968 306.984 57.288C308.008 58.44 308.648 58.824 309.416 58.952C311.848 59.4 314.664 57.224 317.224 54.664V50.952Z" fill="#372549"/>
</mask>
<g mask="url(#mask0)">
<rect x="-12" y="-19" width="337" height="121" fill="#774C60"/>
<rect x="-12" y="-19" width="337" height="121" fill="url(#paint0_linear)"/>
<rect x="-12" y="-19" width="337" height="121" fill="url(#paint1_linear)" fill-opacity="0.58"/>
<rect x="-12" y="-19" width="337" height="121" fill="url(#paint2_linear)" fill-opacity="0.41"/>
</g>
<defs>
<linearGradient id="paint0_linear" x1="-12" y1="41.7597" x2="329.531" y2="41.7597" gradientUnits="userSpaceOnUse">
<stop stop-color="#372549"/>
<stop offset="0.0001" stop-color="white" stop-opacity="0.822917"/>
<stop offset="0.0002" stop-color="#372549"/>
<stop offset="0.192708" stop-color="#3F6F9B"/>
<stop offset="0.354167" stop-color="#774C60"/>
<stop offset="0.552083" stop-color="#372549"/>
<stop offset="0.791667" stop-color="#36B0C0" stop-opacity="0.79"/>
<stop offset="1" stop-color="white" stop-opacity="0"/>
</linearGradient>
<linearGradient id="paint1_linear" x1="156.5" y1="-19" x2="156.5" y2="102" gradientUnits="userSpaceOnUse">
<stop stop-color="#FF0077"/>
<stop offset="1" stop-color="white" stop-opacity="0"/>
</linearGradient>
<linearGradient id="paint2_linear" x1="275.074" y1="54.5" x2="53.7057" y2="107.75" gradientUnits="userSpaceOnUse">
<stop stop-color="#774C60"/>
<stop offset="1" stop-color="white" stop-opacity="0"/>
</linearGradient>
</defs>
</svg>
